<svg width="1990" height="503" viewBox="0 0 1990 503" fill="none" xmlns="http://www.w3.org/2000/svg">
<path fill-rule="evenodd" clip-rule="evenodd" d="M24.4851 125.836C61.6226 103.935 98.6181 81.8146 135.286 59.8894L135.296 59.8837C161.117 44.4446 186.775 29.1026 212.206 14.0027C220.068 9.33214 229.716 9.33211 237.578 14.0027C262.956 29.0713 288.56 44.3806 314.326 59.7868L314.34 59.7952C351.06 81.7512 388.109 103.904 425.3 125.836C433.383 130.606 438.497 139.115 438.677 148.168C440.072 219.078 440.072 289.988 438.677 360.898C438.499 369.951 433.386 378.46 425.3 383.23C410.223 392.121 395.169 401.049 380.151 409.985C370.821 415.536 361.505 421.091 352.205 426.643L230.764 204.577L101.502 428.985C92.2147 423.439 82.9105 417.889 73.5921 412.341C57.2614 402.619 40.887 392.903 24.4849 383.23C16.401 378.461 11.2863 369.952 11.1072 360.899C9.71328 289.989 9.71329 219.078 11.1073 148.168C11.2865 139.114 16.4012 130.607 24.4851 125.836ZM151.963 87.7745L151.919 87.8008C116.111 109.212 79.8951 130.866 43.5254 152.328C42.2306 220.464 42.2305 288.602 43.5253 356.739C59.0008 365.871 74.445 375.036 89.8398 384.2L232.014 137.429L364.945 381.224C378.683 373.052 392.459 364.882 406.259 356.739C407.555 288.602 407.555 220.464 406.259 152.327C369.824 130.827 333.543 109.134 297.671 87.6848L297.665 87.6813L297.651 87.6728L297.591 87.6373C273.161 73.03 248.922 58.5369 224.892 44.2584C200.795 58.5765 176.487 73.1106 151.988 87.7595L151.963 87.7745Z" fill="url(#paint0_linear)"/>
<path d="M282.506 428.14L296.907 454.978L237.568 488.883C229.825 493.308 220.354 493.291 212.626 488.838L152.838 454.391L168.141 427.564L225.085 460.84L282.506 428.14Z" fill="url(#paint1_linear)"/>
<path d="M567.657 335.448H596.864L652.518 229.103L638.03 201.424L567.657 335.448ZM667.237 201.424L652.518 173.746L638.03 201.424L652.518 229.103L708.403 335.448H737.38L667.237 201.424Z" fill="#313131"/>
<path d="M736.751 173.746H707.543L777.917 307.77L792.405 280.091L736.751 173.746ZM848.29 173.746L792.405 280.091L777.917 307.77L792.405 335.448L806.894 307.77L877.267 173.746H848.29Z" fill="#313131"/>
<path d="M933.762 260.667H1031.96V237.358H933.762V197.54H911.684V335.448H1046.91V312.383H933.762V260.667ZM911.684 174.231V197.54H1046.91V174.231H911.684Z" fill="#313131"/>
<path d="M1084.26 335.448H1106.34V230.074L1084.26 206.766V335.448ZM1183.61 174.231V278.634L1084.26 173.988V206.766L1106.34 230.074L1205.46 334.72V174.231H1183.61Z" fill="#313131"/>
<path d="M1320.72 335.448V196.178H1298.64V335.448H1320.72ZM1379.13 197.54V174.231H1242.75V197.54H1379.13Z" fill="#313131"/>
<path d="M1416.29 335.448V173.988H1438.37V335.448H1416.29ZM1437.68 174.717H1416.98V334.72H1437.68V174.717ZM1416.29 173.988V335.448H1438.37V173.988H1416.29Z" fill="#313131"/>
<path d="M1609.59 307.77C1621.32 293.445 1628.22 275.235 1628.22 254.84C1628.22 210.408 1594.18 174.231 1551.87 174.231C1509.78 174.231 1475.51 210.408 1475.51 254.84C1475.51 299.514 1509.78 335.448 1551.87 335.448C1552.1 335.448 1552.33 335.448 1552.33 335.448H1620.4L1602 315.782C1604.76 313.354 1607.29 310.683 1609.59 307.77ZM1576.94 305.827C1573.26 307.77 1569.58 309.469 1565.67 310.44C1561.3 311.654 1556.7 312.383 1551.87 312.383C1521.97 312.383 1497.59 286.646 1497.59 254.84C1497.59 223.276 1521.97 197.54 1551.87 197.54C1581.99 197.54 1606.37 223.276 1606.37 254.84C1606.37 268.679 1601.77 281.305 1593.95 291.259C1591.65 294.173 1589.12 296.844 1586.36 299.272C1583.37 301.942 1580.15 304.128 1576.94 305.827Z" fill="#313131"/>
<path d="M1779.75 174.231V263.338C1779.75 289.56 1760.2 311.412 1735.13 312.383C1734.67 312.383 1734.21 312.383 1733.52 312.383C1733.06 312.383 1732.6 312.383 1731.91 312.383C1707.07 311.412 1687.53 289.56 1687.53 263.338V174.231H1665.45V276.692C1665.45 288.831 1669.59 300.728 1677.41 309.712C1680.63 313.111 1683.85 316.267 1687.53 319.181C1700.4 329.379 1716.27 335.448 1733.52 335.448C1751 335.448 1766.87 329.621 1779.75 319.181C1783.2 316.51 1786.65 313.354 1789.64 309.712C1797.45 300.971 1801.59 289.074 1801.59 276.934V174.231H1779.75Z" fill="#313131"/>
<path d="M1863.59 260.667H1961.79V237.358H1863.59V197.54H1841.52V335.448H1976.74V312.383H1863.59V260.667ZM1841.52 174.231V197.54H1976.74V174.231H1841.52Z" fill="#313131"/>
<path fill-rule="evenodd" clip-rule="evenodd" d="M567.644 335.432H596.851L652.506 229.086L708.391 335.432H737.368L667.225 201.407L652.506 173.729L638.018 201.407L567.644 335.432ZM652.512 235.615L706.559 338.464H742.377L669.911 200.002L652.485 167.231L562.628 338.464H598.687L652.512 235.615ZM777.905 307.753L792.393 335.432L806.882 307.753L877.255 173.729H848.278L792.393 280.074L736.739 173.729H707.531L777.905 307.753ZM792.399 273.545L738.574 170.697H702.515L775.218 309.159L792.393 341.97L809.567 309.162L882.272 170.697H846.446L792.399 273.545ZM1106.33 335.432H1084.25V173.971L1183.6 278.617V174.214H1205.45V334.703L1106.33 230.058V335.432ZM1109.36 237.668V338.464H1081.22V166.374L1180.57 271.02V171.182H1208.48V342.313L1109.36 237.668ZM1416.97 334.703H1437.67V174.7H1416.97V334.703ZM1031.95 237.342V260.65H933.751V312.366H1046.9V335.432H911.673V174.214H1046.9V197.523H933.751V237.342H1031.95ZM936.783 234.31V200.555H1049.93V171.182H908.641V338.464H1049.93V309.334H936.783V263.682H1034.98V234.31H936.783ZM1323.74 338.464H1295.6V200.555H1239.71V171.182H1382.15V200.555H1323.74V338.464ZM1320.71 200.161H1298.63V335.432H1320.71V200.161ZM1379.12 197.523V174.214H1242.74V197.523H1379.12ZM1440.7 171.668V337.735H1413.94V171.668H1440.7ZM1551.86 335.432C1509.77 335.432 1475.51 299.498 1475.51 254.823C1475.51 210.391 1509.77 174.214 1551.86 174.214C1594.17 174.214 1628.21 210.391 1628.21 254.823C1628.21 275.218 1621.31 293.428 1609.58 307.753C1607.92 309.865 1606.13 311.849 1604.22 313.706C1603.49 314.411 1602.75 315.097 1601.99 315.765L1620.39 335.432H1551.86ZM1606.29 315.921L1627.38 338.464H1551.86C1507.95 338.464 1472.47 301.021 1472.47 254.823C1472.47 208.874 1507.94 171.182 1551.86 171.182C1596.01 171.182 1631.24 208.88 1631.24 254.823C1631.24 275.915 1624.1 294.795 1611.95 309.654C1610.19 311.876 1608.3 313.965 1606.29 315.921ZM1564.93 307.481C1568.48 306.598 1571.9 305.033 1575.51 303.129C1578.52 301.539 1581.54 299.493 1584.34 296.994L1584.35 296.978C1586.97 294.674 1589.37 292.139 1591.56 289.37C1598.96 279.946 1603.33 267.979 1603.33 254.823C1603.33 224.785 1580.17 200.555 1551.86 200.555C1523.79 200.555 1500.62 224.777 1500.62 254.823C1500.62 285.121 1523.8 309.334 1551.86 309.334C1556.38 309.334 1560.71 308.653 1564.85 307.502L1564.93 307.481ZM1565.66 310.424C1569.57 309.452 1573.25 307.753 1576.93 305.81C1580.15 304.111 1583.37 301.926 1586.36 299.255C1589.11 296.827 1591.64 294.156 1593.94 291.243C1601.76 281.288 1606.36 268.662 1606.36 254.823C1606.36 223.259 1581.99 197.523 1551.86 197.523C1521.96 197.523 1497.58 223.259 1497.58 254.823C1497.58 286.629 1521.96 312.366 1551.86 312.366C1556.69 312.366 1561.29 311.638 1565.66 310.424ZM1776.71 171.182H1804.62V276.918C1804.62 289.697 1800.27 302.317 1791.93 311.669C1788.78 315.494 1785.18 318.782 1781.62 321.541C1768.21 332.402 1751.68 338.464 1733.51 338.464C1715.53 338.464 1699.01 332.131 1685.63 321.541C1681.79 318.501 1678.46 315.229 1675.2 311.78L1675.11 311.687C1666.77 302.107 1662.41 289.485 1662.41 276.675V171.182H1690.55V263.321C1690.55 288.077 1708.96 308.401 1731.96 309.334H1735.06C1758.3 308.401 1776.71 288.067 1776.71 263.321V171.182ZM1735.12 312.366H1731.9C1707.06 311.395 1687.52 289.543 1687.52 263.321V174.214H1665.44V276.675C1665.44 288.815 1669.58 300.712 1677.4 309.695C1680.62 313.094 1683.84 316.251 1687.52 319.164C1700.4 329.362 1716.26 335.432 1733.51 335.432C1750.99 335.432 1766.86 329.605 1779.74 319.164C1783.19 316.493 1786.64 313.337 1789.63 309.695C1797.45 300.954 1801.59 289.057 1801.59 276.918V174.214H1779.74V263.321C1779.74 289.543 1760.19 311.395 1735.12 312.366ZM1961.79 237.342V260.65H1863.58V312.366H1976.73V335.432H1841.51V174.214H1976.73V197.523H1863.58V237.342H1961.79ZM1866.62 234.31H1964.82V263.682H1866.62V309.334H1979.77V338.464H1838.47V171.182H1979.77V200.555H1866.62V234.31Z" fill="#313131"/>
<defs>
<linearGradient id="paint0_linear" x1="224.893" y1="10.4998" x2="224.893" y2="492.19" gradientUnits="userSpaceOnUse">
<stop stop-color="#68DCEC"/>
<stop offset="1" stop-color="#21AFEB"/>
</linearGradient>
<linearGradient id="paint1_linear" x1="224.893" y1="10.4996" x2="224.893" y2="492.19" gradientUnits="userSpaceOnUse">
<stop stop-color="#68DCEC"/>
<stop offset="1" stop-color="#21AFEB"/>
</linearGradient>
</defs>
</svg>
